# xmcd
#
# Track frame offsets:
#	150
#	12239
#	24266
#	34644
#	45515
#	56051
#	83476
#	106885
#	123956
#	165899
#	184246
#	198916
#	219706
#	234967
#	253251
#	263412
#
# Disc length: 3766 seconds
#
# Revision: 0
# Processed by: cddbd v1.5.1PL0 Copyright (c) Steve Scherf et al.
# Submitted via: dBpowerAMP V4.0
#
DISCID=c00eb410
DTITLE=Chuck Berry - The Best of Chuck Berry
DYEAR=1998
DGENRE=Blues-Rock
TTITLE0=No Particular Place to Go
TTITLE1=Sweet Little Sixteen
TTITLE2=Sweet Little Rock and Roller
TTITLE3=Roll Over Beethoven
TTITLE4=Rock and Roll Music
TTITLE5=Reelin' and Rockin'
TTITLE6=In The Wee Wee Hours
TTITLE7=Nadine (Is That You?)
TTITLE8=My Ding A Ling
TTITLE9=Memphis Tennessee
TTITLE10=Maybelline
TTITLE11=Johnny B Goode
TTITLE12=Hail! Hail! Rock N Roll
TTITLE13=Carol
TTITLE14=Brown Eyed Handsome Man
TTITLE15=Bonsoir Cherie
EXTD=
EXTT0=
EXTT1=
EXTT2=
EXTT3=
EXTT4=
EXTT5=
EXTT6=
EXTT7=
EXTT8=
EXTT9=
EXTT10=
EXTT11=
EXTT12=
EXTT13=
EXTT14=
EXTT15=
PLAYORDER=
